/* XPM */
static char *result[] = {
/* columns rows colors chars-per-pixel */
"64 64 79 1 ",
"  c #050E25",
". c #080E27",
"X c #0B0F29",
"o c #100F2C",
"O c #081026",
"+ c #0D1429",
"@ c #13112D",
"# c #14192D",
"$ c #191A2E",
"% c #171030",
"& c #1B1133",
"* c #191A30",
"= c #211336",
"- c #231A35",
"; c #251338",
": c #2C143C",
"> c #271839",
", c #2C1A3B",
"< c #31153F",
"1 c #321B3F",
"2 c #1C202F",
"3 c #1F2330",
"4 c #292237",
"5 c #2E233A",
"6 c #2B2D39",
"7 c #30203C",
"8 c #3B3C3E",
"9 c #341641",
"0 c #3A1744",
"q c #361A41",
"w c #3A1B44",
"e c #3D2145",
"r c #3E2B43",
"t c #3D3147",
"y c #401A47",
"u c #451C49",
"i c #412546",
"p c #452B46",
"a c #452549",
"s c #4A254C",
"d c #472B48",
"f c #4C2C4C",
"g c #542E4F",
"h c #423443",
"j c #4B334E",
"k c #4E3A48",
"l c #52354F",
"z c #593C4F",
"x c #572C51",
"c c #5B2D53",
"v c #4F3451",
"b c #523551",
"n c #5A3553",
"m c #633755",
"M c #673758",
"N c #6A3759",
"B c #5C494E",
"V c #634A52",
"C c #6C465B",
"Z c #71465F",
"A c #6D5857",
"S c #63545F",
"D c #6C565B",
"F c #6D595B",
"G c #6A6A57",
"H c #6B5563",
"J c #725667",
"K c #785E6B",
"L c #817862",
"P c #946671",
"I c #926E73",
"U c #968C7A",
"Y c #9B8E86",
"T c #9E8F88",
"R c #A88883",
"E c #A89D8F",
"W c #BBBE87",
"Q c #C3B69A",
"! c #D9DCB3",
/* pixels */
"                                                    %&&&&<09qe90",
"                                           +  +    .5-%&9Jnweb9=",
"       .                                  +3 .@ ..X%=&&=sTJ99=&&",
"   6#  @.                                       X%&&%&;:9fw9r,,&",
"   #+                                  2+  #+   X=5&&=ebwi999>&#",
"                                  +2   +.  6*@ .+&>&&&9e909:&&++",
"                                  O+         . X&&&5>:999:&&&5&%",
"   .                    2O           +  .XX   %=5&&&;9ve:=&&&&% ",
"  O@                    +O     .O    *+  %&@.X%&=&=>99q:&&&oXoX ",
"                     .          O+   .O+X&e;%&&&&;99w9&&&%.. .. ",
"                     @.         +2  ...&&eYH;&&=:eb9:=%&5*   @. ",
"            @  +           O+       .%%&&=Hv&&:99ww;&%&&=&X.#@. ",
"                           +*.   OO   %&&&;&&;9099&&==&;&%+ 6#  ",
"         2+   .       ..        OO   O%&=9=&&999;=&=9:&=@..     ",
"         +.  ..  +#   ..      .@      X:99&&:999;&&:<9:e=.      ",
"                 #6   .+       X    ++=9be=9999:=&&qv99bq&O     ",
"                       +   .+X    .X%&;<i::<<99&&&%&,&&;9Ht.    ",
"           ..            . &9&@    X&%=9;=:99q:&&&@.. +%eYH@+2  ",
"   O      ..@      +.. X.X%99==@  Xo%%>i%&<0qi<99=&X+    5%  +  ",
"                   2+X&e::9:999:&.X=%&,k=:0<9<:909&&&.   O +O   ",
"           X        .%iTJ0>&;:90:%%&i:rA9uu;09;9=&&,4O.    . O+ ",
"          .o ..      +=Hd;&&;09;=5%-pmZIMx:;:=&&&=&&@+ .     +3 ",
"              .      O @o%&&vJw==>>1pZRQPca1;=&%&5=%. *+. #O    ",
"   OO#          +2   +* X&&:JTa9<yszAIQ!RLBd0;&&&&&%. +++ 6#    ",
"    #6      .   O+O 3++X&&&=ws=:<0<<0NPRZs;%%&&9u=&%&X  .       ",
"        2+  ..Xo    +  .%&&&;&&&:<<<sxcLsx9&&:9JYa9=&&o.        ",
"        +  +%=&&@.     .&&&&=&&>00<0y<iV99w&&:9bJw9:&&@ .       ",
" O  O  O+  %>Hj&&. O .@%&5&=5&;9<<<0<<0x0;&;&:::9;==&&+...      ",
".@  +  +3 .%eTH:&%@&%@&&&-&&&:9:99<<<<0u0:&&=::&&&&&&&&+     .. ",
"       O   %&au9=&5&&&-&&&&&:999<<<<0<<09&&&5&@XXX&&&&&&.     . ",
"      2+   o&;99w>=&&&5=&&:99999<<<<99y1=&&&&%..X X&&&5X        ",
"   +$ +O  .%&&;:0,&&&&=;::999:90:=:<:<le&&&&&X  .  X@@X.    .   ",
" +OO+   .o%&&%&:9e&&&>909999999:&;::==;=&&%7-@O.  @O        .   ",
" 2+  3+ o&&&&;0ib;&&;9uw9:9999:==<<:&&%=:>&=&;=%O ..            ",
"  O  +. %&&%&<qqe&&&99vw:&=;&==&:ws::=;sw<,5&>i<&  .#O  ..      ",
" +*    .&&&&&1i<:&&=9:99=&&&&&-5:JTs9:aTJ<&>::1<= .X6#  @.      ",
" O++. .&&&&&&;:0q&&:9999;&&&&%&=&jJq=;0Jb;%=<<=&X           6#  ",
"    X.%&=:<:<<<99:99:&=:&o&&%X%%&&:&&&=9:&=:i:.             #O  ",
"Xo%%%%%:<09<09999qp:&&&&@.    .X&&&&9s::;;1qq;.                 ",
"&&&&=:9Hb909;:99:99=%&:&&X X3 @.@&&:JTs<:<a1&X        .         ",
"&&&&&:sTJ9:;&:<9909=&=d,&%+3+ ..&&&;bJ9&&::o    #O              ",
"&&&&&=:i0=&&%;<<:9999fUF9&++ #6 o&&&;:&+XoX  +  6+              ",
"&&&&&&&&&=:;:<<<9909wD!Ld=X. +# .X%%@X.                         ",
"&;:9&&&=::<<<<q9999;=<Sd&&&X       ..    .+                     ",
";9999;::9w<9<<iq9<=&=;q:&&&5&X..     2+  +2                     ",
"&:9e999eq0gw<<<9:=&&;9wq====&&%.X.@. +O                         ",
";99vw90q99Cf<<99:&&&:9bs099=&&&%X ..   .                        ",
"&;;99909<<09<9:09::<<<9<0w9&&&=&&o.    o@.                      ",
"&&;:9:9999999:9999:9;=0909:&&vH>&=%.+%:q<=O                  @X ",
";9i999:99:0s99r9999;=&::e9;&=JTa99;%%;eb<<.                  .. ",
"<9q<999999JTs9==&=&&&&&=9=:=&9seb9=&&%:wJh.      OO             ",
"<<<q9099:9vJq9;&>5&&=;9;&&=&&&:di;&&&=9sRSo      O&+  OO        ",
"w999:999:999wb9&&>&;9;9;&&&=&&&;;&5&o&;:r#        +h8-@         ",
"99:9:9099999we=&&&;ev9;&&&=;&&&&%&-%  ..X.         8WGO         ",
":9999:99999909==5&99q99%&>%@+o@X.%@.  X            -GL$         ",
"<909999q9:009w&&&&=%XOX@%4+O... ..                O@O$>O        ",
"9::99:9iq99;99=&&&%.O%  XX OO       +3  X             X+        ",
"999999wq9;;&&:;&&>5O    +O O%        +                          ",
":99::9ve:=&&&&&&&&&&O.  3+    #6             @X                 ",
"9999:99::&&5&&&&;9&&&%.     + O# #6          ..                 ",
":9099009>&&=&%&;qe&&&&%%.   3O   O#                             ",
"999::999&-&&::;&ev9&&&&&..@              .                    . ",
"99:&&=:;&7=:Jv:%=9=&&>4X  X                               X.    ",
"9:=&&&&&&&&sEK:&&&&&%%.                                   @O    "
};
