/* XPM */
static char *_198cf8ac6044fcfe8a6a39df7ea2e1eqL2vsHOkxntZ5ReD[] = {
/* columns rows colors chars-per-pixel */
"64 64 245 2 ",
"   c #26108E",
".  c #31138C",
"X  c #2D1492",
"o  c #2D1B95",
"O  c #2D1E9A",
"+  c #271F97",
"@  c #341494",
"#  c #3C1395",
"$  c #331B94",
"%  c #3B1699",
"&  c #351D9B",
"*  c #3C1C9C",
"=  c #3A1A97",
"-  c #300B8A",
";  c #1D2898",
":  c #2C249B",
">  c #222C9D",
",  c #2B2A9D",
"<  c #272398",
"1  c #34239D",
"2  c #3B229D",
"3  c #392A9E",
"4  c #352697",
"5  c #29329A",
"6  c #3A309E",
"7  c #3E1EA0",
"8  c #1B39A4",
"9  c #2C2CA3",
"0  c #2A2AA1",
"q  c #3525A1",
"w  c #3C24A2",
"e  c #342BA4",
"r  c #3B2AA5",
"t  c #332EA9",
"y  c #3C2DA9",
"u  c #2632A3",
"i  c #2D33A5",
"p  c #2D35AA",
"a  c #243CAA",
"s  c #2C3CAD",
"d  c #2539A5",
"f  c #3332A6",
"g  c #3C32A5",
"h  c #3434AB",
"j  c #3C32AB",
"k  c #323BAD",
"l  c #3B3AAE",
"z  c #3639A5",
"x  c #2C3EB1",
"c  c #333DB1",
"v  c #3A3CB2",
"b  c #3836B1",
"n  c #410E95",
"m  c #560E9D",
"M  c #421495",
"N  c #4A1494",
"B  c #421B95",
"V  c #43159B",
"C  c #4A149C",
"Z  c #421B9D",
"A  c #4A1B9E",
"S  c #52139D",
"D  c #551899",
"F  c #51158F",
"G  c #6D0F9F",
"H  c #61149A",
"J  c #681994",
"K  c #42239D",
"L  c #49289B",
"P  c #58239B",
"I  c #64249C",
"U  c #451DA1",
"Y  c #4B1DA2",
"T  c #4E17A1",
"R  c #531AA3",
"E  c #5D1BA2",
"W  c #6719A7",
"Q  c #751BA9",
"!  c #4323A4",
"~  c #4A23A4",
"^  c #432AA5",
"/  c #4A2CA6",
"(  c #4C25A9",
")  c #432CAA",
"_  c #4B2AAB",
"`  c #4427A8",
"'  c #522AAC",
"]  c #5626A8",
"[  c #4332AC",
"{  c #4C32AE",
"}  c #4939A8",
"|  c #572FB2",
" . c #4435B1",
".. c #443CB2",
"X. c #4C3CB4",
"o. c #4D3DB9",
"O. c #4B36B3",
"+. c #5434B3",
"@. c #5B34B6",
"#. c #523BB5",
"$. c #583BB8",
"%. c #5634AF",
"&. c #6725AB",
"*. c #7624AB",
"=. c #6828B2",
"-. c #7425B2",
";. c #643AB5",
":. c #7732B5",
">. c #1C44AC",
",. c #1548AB",
"<. c #015EAD",
"1. c #1C4CB3",
"2. c #1C49B2",
"3. c #0A5DB8",
"4. c #1454B4",
"5. c #1C52B6",
"6. c #1D55BA",
"7. c #155DBC",
"8. c #1C5BBC",
"9. c #175AB6",
"0. c #1E5BAE",
"q. c #2443AD",
"w. c #2B43AE",
"e. c #2548AD",
"r. c #3442AE",
"t. c #2545B1",
"y. c #2B44B2",
"u. c #244BB4",
"i. c #2B4AB5",
"p. c #264EBA",
"a. c #2B4DBA",
"s. c #2A45B8",
"d. c #3344B4",
"f. c #3B43B4",
"g. c #3249B5",
"h. c #3447B8",
"j. c #324CBA",
"k. c #3B4BBC",
"l. c #3A46B6",
"z. c #2352B6",
"x. c #2354BB",
"c. c #2B53BC",
"v. c #235ABD",
"b. c #2B5ABF",
"n. c #2A54B4",
"m. c #3453BD",
"M. c #3655BA",
"N. c #2C59AE",
"B. c #0164AE",
"V. c #0463B4",
"C. c #0C65BD",
"Z. c #0D6ABD",
"A. c #0868B7",
"S. c #1462BE",
"D. c #1A62BE",
"F. c #106EBF",
"G. c #1B68B8",
"H. c #0C71BE",
"J. c #0670BE",
"K. c #2263BB",
"L. c #4646B9",
"P. c #5244BD",
"I. c #5546B8",
"U. c #4859BE",
"Y. c #4D46AE",
"T. c #6448BC",
"R. c #673EC1",
"E. c #165FC1",
"W. c #1D5EC1",
"Q. c #2B56C0",
"!. c #235CC1",
"~. c #2B5BC2",
"^. c #2556C0",
"/. c #3155C1",
"(. c #345AC2",
"). c #0D6CC3",
"_. c #0C6AC4",
"`. c #1465C2",
"'. c #1B64C3",
"]. c #136CC4",
"[. c #1B6AC5",
"{. c #1B65CA",
"}. c #156EC9",
"|. c #1B6DC9",
" X c #1266C8",
".X c #0C73C5",
"XX c #0B79C6",
"oX c #0E75C9",
"OX c #0D7BCC",
"+X c #0676C7",
"@X c #1373C6",
"#X c #1974C5",
"$X c #1474CA",
"%X c #1A73CB",
"&X c #137ACC",
"*X c #1A7ACD",
"=X c #1279C4",
"-X c #1B75D2",
";X c #147CD1",
":X c #1B7CD2",
">X c #1473D2",
",X c #2263C3",
"<X c #2268C6",
"1X c #226CCA",
"2X c #2868C9",
"3X c #2273CD",
"4X c #2177CB",
"5X c #237DD4",
"6X c #2978D3",
"7X c #2E75D6",
"8X c #5B48C4",
"9X c #4955C4",
"0X c #5955C9",
"qX c #595FD1",
"wX c #694AC8",
"eX c #7647C6",
"rX c #6756D2",
"tX c #7256D1",
"yX c #4F63CB",
"uX c #7D6DE6",
"iX c #6068CB",
"pX c #822BB5",
"aX c #9052D0",
"sX c #B75CDB",
"dX c #886AE8",
"fX c #896DDC",
"gX c #CC72F8",
"hX c #0D80CF",
"jX c #1682CE",
"kX c #0F82D2",
"lX c #1481D2",
"zX c #1D85D6",
"xX c #2283D3",
"cX c #2788DA",
"vX c #3087DE",
"bX c #2889D6",
"nX c #3897E6",
"mX c #449EF2",
"MX c #48ADF7",
"NX c #7D89F7",
"BX c #75D2FF",
"VX c #9582FF",
"CX c #B48FFF",
"ZX c #E88EFF",
"AX c #FFB3FF",
/* pixels */
"C.]._.C.].{.`.{.E.{.{.{. X_._.oX).$X$XOXOXOX.X_.D.x.a.d.v  .w & ' 7 Y Y V C Y % 7 U U Z Y n R T m =.' U & & U Y C ( ` 7 ` 7 % R ",
").#X].C._.].`.`.'.{.{.{. X_._.+X_.OX&XOX+XoX.X).8.v.j.d.b j _ _ 7 U Z % Y U U ' ` 7 U 7 ' Y R C T T @ q ) 1 * % Y ' ` y [ ` U Y ",
"].xX*XC.Z.$X].S.`.[.`.].}.$X>X+X>X;X;XOXOXoX).`.4.p.d.k q w _ +.) ` & 7 & _ $.@ 7   w & ` ( % % V ~ q q e : w ` * ! w q q 7 7 U ",
"#X5X*XZ..X=X@X@X].].}.%X-X:X>X$X;XlXlX;X&XoX`.7.5.i.k t w U Y Y 7 &   ) y 7 O.7 7 O P.y ) ` 7 ( = w , < < + 8XdX* w y w q 7 U U ",
"F.#XF.H.=XXXXX=X@X#X$X#X:X:X:X&XOX;XkXlX;X@XS.9.c.y.k r _ _ Y 7 X VXrX  @ 7 q O r r 0X .r w = _ ! @ 4 j L.$ { wX7 U U ` 7 U T T ",
"].F.Z.XXjXXXH.jX&X=X*X$X&X&X&X&XOXOX;XkX&X_.7.9.c.x t r { | ( % O 8Xy w O.7 [ uX1 O  .w w & = * 2 K K 4 { @ M - V 7 U Y U V T C ",
"#X*X&X&XjXhXXXhX&X=X&X$X$XoX&X&XOXOXOX&X$X).7.6.i.s i r [ _ w w r o o 7 & 7  .o.q O q 7 ) w ! Z Z 2 2 - L # ] A T T Y ' U R R R ",
"$X:X*XOXOXOXXXH.XX@X@X}.$X$X;X:X&X+X+XoX].C.7.8.z.i.s p t t t r q y y q 7 r 7 r q t t q r & ! = / . L wXdXL # V * # U Y 7 U Y V ",
">X>XoX>X&XoX@X#X].%X%X`.].}.>XoX:X$XoXoX$X%X'.,Xx.p.i.y.x s s x p p h t j h j j k h h h h t r e 4 6 / L T.L . K & 2 & { O O.& & ",
";X>X>X$X$X}.[.G.,X8.,X,X'.`. X X).).].@X$X|.].7.W.!.z.z.u.2.t.t.x x c x s s s y.y.y.y.y.d.c k h 6 6 o T.L = / 2 r r : O O q r r ",
":X>X}.|.'.,Xb.b.c.i.n.Q.x.W.`.`.S.`.[.@X%X%X%X|.[.'.8.8.8.8.9.9.5.5.u.z.u.u.u.x.x.x.z.x.z.c.i.w.M.6 I.I.%.P L } 4 4 : 4 o.o r q ",
">X>X{.'.~.c.g.N.z f.f.r.t.Q.!.7.'.'.].].$X%X5XcX[.[.`.'.S.S.C.7.'.8.'.8.8.8.D.'.7.S.S.7.D.D.6.n.N.z T.T.eX] B L w 4 2 $.tX& [ ) ",
"{.{.,X~.N.r.z L L } } 6 k g.n.5.8.'.[.[.].$X:XzX@X$X}.].].`.].].].].].`.`.].`.].).).).`.].S.S.8.U.iXI.CXfX:.eXB 2 = = ' wX# _ ( ",
"{.'.x.u.z L L F F I P B r i d b.6.8.'.[.].oX$X&X$X$X$X$X$X%X$X$XoX$X}.}.].].@X.X.X_..X.X@X].[.K.N.U.Y.fXaX%.T.$ 4 4 @ # V n ( @ ",
"D.0.e.5 4 L F J pXsXaXI L 6 5 M.6.8.'.[.$X.XoXoX&X&X&X%X%X&X%X&X$X%X%X&X].].$X$X@XoX$XoX$X|.|.<X0.N.yXY.tX%.= X.I.4 w K ! Y | X ",
"v.z.e.5 4 L I J sXAXZX:.P } 5 w.n.6.7.S.)._.oXoX&X>X&X*X-X&X&X$X&X&X$X$X$X$X$X$XoXoXoX$X&X%X%X].G.N.N.U.Y.} L L.fX< $ * ( 7 ' 7 ",
"L.z 5 z 4 } P F aXZXgX*.F 2 l d u.z.x.E.'.[.}.}.$X$X}.$X$X&X;X;XoX+X>X;X;XkXOXOXhXXXOXlX:X=X$X%XG.0.n.M.f.^ K = K * % ( U % ` U ",
"g g g g o $ B I H pXQ H P K , > s i.a.x.8.W.'.`.|.}.}._.$X$X$X&X$X>XOXOXOXOXOXhXhXOXjXcXcX*X$X#X4XG.v.q.l e { ~ U Y * U * U ( % ",
"f , : , 3 4 B F H Q H D ] = f L.p k d.a.c.!.'.7.`.`.{.`. X}.}.%X%XoXoXoXOX>XOX&X&XOXjXzXxXjX=X#X].G.2Xa f. .wX@.A Y Z U % ( U % ",
"f.f < e 0X%.L F F &.W S B = o.rX& t b c i.x.x.8.7.S.'.E.`.{.'.[.[. X].}.}.oX$X$X$XOX&X&X&XXXXX@XF.9.v.>.l.j $._ U U Z Y U ( # U ",
"s p i f I.^ L A C S N M U 7 y 7 7 w w t p s t.1.6.6.W.W.8.^.^.!.8.E.W.'.[.[.}.@X*X$X&X&X&XOXOX$X#XS.5.>.r.f 2 = U Y 7 7 U U % U ",
">.a d 9 e = * A Y U % ~ ( 7 7 % U Y ` y q p x y.t.t.u.u.z.c.p.p.x.5.v.!.,X'.[.[.#X@X&X*XjXOXXXXX#X[.9.u.w.h 1 K % R U 7 U 7 U 7 ",
"Q.a.y.v t  .) K 7 7 O 7 7 7 ' | U ( ` U w r j b k s x x y.y.x s.t.i.p.p.x.v.D.'.[.}.@X&X&XhXXXXXZ.G.8.,.w.p e ^ 7 Y 7 +.rX7 y 7 ",
"4.x.j./.9 y r & y y q 7 @ 7 ( U 7 7 U U 7 7 ` [ t t p k p c x x s x w.q.u.x.v.D.[.$X@X&XOX&XOX&X@XbX7Xz.m.s ..r w 7 7 tXdX7 q 0 ",
"'.W.^.s.x t t t t t t t 7 7 U U ` O 7 _ Y U % | ` y t q t p 9 t 9 f i ; a i.5.,XS.`.$X$X&X&X$X$XF.3X3Xx.u.d.l g w 7 w r r O 0 p ",
"`.'.W.p.x x x b p p p t r 7 U U X O 7 7 7 V U ( 7 7 O O q 0 + O q : , i i.c.1.'.'.F.}.@X%X$X$X$X[.<XK.z.e.r.l j q 7 O 7 9 0 p x ",
"C.S.8.x.^.x x x x x p t r ! Y ! O L.b 7 7 U 7 7 7 y b t t q o.rX$.1 1 9 a i.5.K.'.].].].}.%X}.[.,X0.u.z.i.k h j y q 7 9 t p x s.",
"_.].`.E.^.^.^.Q.s.s.p p q w U Z t rXo.7 7 7 y 7 t b k.b 0 O o.uXwX! 1 , > u.n.,X`.S.].}.|.|.'.'.v.z.u.i.g.k j r w 7 q t b d.y.p.",
").@X].].'.W.W.^.^.s.x t t 7 U * 7 P.y 7 w q t b /.h.h.h.c 0 7 +.~ V L e u a.v.9.`.[.].[.{.<XW.6.i.e.w.s p f t ^ * & & t c h.a.Q.",
"@X@XoX].].{.W.W.Q.^.s.b t 7 w 7 % ` % 7 q t p /.Q.Q.^.Q.h.t y @.M A { g s m.v.7.].].}.|.1X,X6.u.w.r.i , < 1 2 ! ( ! w q k y.c.Q.",
"XX=XoX$X$X X`.W.^.s.s.t t y w U T C U 7 t b x ^.E.E.E.6.x p ) @.] ] _ e s n.9.[.[.].%X[.'.6.u.i.k i 9 j j 2 & Z ' ( ! w h y.a.v.",
"=X@XoXXX$X$X}.'.^.^.b t y w U U U % Y ` t h.^.E.E. XE.6./.b 7 # S C K , w.z.4.1X}.$X|.{.8.1.u.g.k , e P.8X[ = * % % * q t d.a.p.",
"=X=XXXXXXX.X].K.b.e.l.e $ ~ ] A Y U ! ! b v a W.]._.C.!.s.h @.eXC R w u 8 4.7.|.|.$X[.S.8.z.y.d.s p e [ _ ) ^ ^ rX) & w y p t.s.",
"&XjX&XOXXX@X].[.K.i.i g T.@.# S U @ = & b h.1.<X`. X`.6.y.j | =.S ! y x 1.7.D.`.|.%X}.S.8.x.i.y.y.d 3 e ) ^ e 1 rXo.` r j p y./.",
"jX&XjXOX&X.X[.D.~.m.i [ tXR.# A ! 2 r t b s.2.E.`. X'.5.c y A C U w p i.x.8.'.`.|.|.$X].7.9.i.i.n.w.i e r w 1 : ..q & q 9 u >.c.",
"OX&X&X&XOX@XF.D.z.q.k e _ ( M A @ O  .h x a.^.E.%X`.8.c.d.q M A r j y.z.8.'.'.[.|.%X#X].C.7.9.u.a.w.p f g g e f , O q j k s u.!.",
"&XOX&X&X&X.X[.D.n.i.k , = Z Z @.{ , h s t.^.E.`.{.'.9.a.b w Y ' h j.~.v.7.[.1X[.1X-X*X$X].S.7.v.n.g.k l j h j l i h h v h.s.6.E.",
"@X&XjX&X&X@X].D.~.m.s 1 O.! # wXuXh u y.p.W.'.|.`.{.x.x h [ +.O.> t.x.8.D.%X3X3X3X:X;X$X@X].D.x.a.g.d.r.k s k d.x s s y.s.5.8.S.",
"@X=XOX&X=X@X].K.6.p.u < [ ! @ +.0X, d a.^.<X-X5XE.W.^.t.p ..#.L.s >.4.8.[.%X%X-X:X:X&XOX$X|.,Xz.g.r.i s r.i.u.e.a.c.c.c.v.'.|.}.",
"@X.XoX@XoX#X].D.v.e.l.l + e ^ 1 , > j./.6.W.{.`.`.W.5.z.d.k l L.yXc.4.'.%X]._.*X:X;XOXOX#X1X~.i.f.f 5 a n.c.v.6.9.v.,X!.'.`.C._.",
"_.]..X.X&X:X|.'.v.c.y.k 9 1 1 e t u y.c.v.8.E.`.{.E.5.x.a.j.r.a Q.p.6.[.$X@X.X&X;XkXhXOX[.W.c.l.g ..5 d u.8.D.D.S.{.`.`.}.}._..X",
"Z.).]._.$X$X@X'.7.z.u.a s p h h p s i.c.c.8.7.7.E.W.!.!.n.p.>.8 s.p.x.[.}.oXoXOXzXkX+X+X`.v.y.e O.#.f.i.v.S.G.#X%X%X#X$X:X%X_..X",
"C.].$X}.@X$X%X[.7.x.p.t.y.y.y.y.q.u.m./.^.1.4.E.W.E.{.,X'.6.4.,.u.z.8.S.].$X;XOXhXhX+XoXS.c.k.8X$ r i u.v.S.].3X1X3X[.%XcX:X$X.X",
"`.[.}.@X.X.X].[.{.8.6.z.z.a.i.u.>.n.Q.(.Q.p.2.1.8.E.[.[.'.S.7.v.1.n.D.'.].:XzX;X+X+X;XoX'.m.9X8X2 o.l.b.D.S.D.9.8.7.7.[.-X-X}.}.",
"'.`.`.`..X$X}.).|.'.8.6.v.!.x.5.5.8.~.(.a.t.p.p.W.W.|.%X}.S.S.'.W.,X1X[.@X:X:X%XzXkXoX_.'.c.c e j 9X(.b.,XD.v.,.>.u.1.4.W.{.[.3X",
"S.S._._.}.>X&X}.].`.'.W.!.'.!.D.S.S.,X~.s.x t.p.W.`.|.>X*X%X[.G.1X1X|.$X}.%X%X$XcX;X+X].'.z.s 9 > g.z.5.K.,Xb.q.p c t.>.5.W.'.1X",
"'.{.].].}.&X-X%X].[.[.[.'.<X<X|.Z.).'.v.s.a x p.x.E.].$X5X5X3X1X|.].).].}.[.[.[. X}.&X$X'.5.d.l.i.M.8.D.<Xv.i.k y j p d u.x.8.,X",
"'.[.%X X)._.$X&X$X}.}.[.[. X[.$X.X.X{.^.t.p x s.Q.W.3.C.}.[.D.S.S.7.3.'.D.8.8.[.%X&X].).'.x.a.y.a.v.9.<X,X1.s l r w q u t.v.x.!.",
"C.cX6X}.Z.)._.$X}.].@X@XF.Z.H.@XoX_.`.^.x p p x /.Q.!.4.1X8.S.4.6.z.e.n.p.u.~.9.`.).$X}.'.5.p.a.5.D.D.2X<X0.w.h < 3 4 f 5 y.u.x.",
"C.$X].C.`.$X[.%X#X].F.$XxXxX$XH..X XE.^.x p 9 p b x a.^.b.,.v.b.w.y.s p i s t.v.{.]._.).`.W.x.v.9.3X3XD.9.n.M.5 g $.^ < i s e.~.",
"V.A.).].F.3.V.[.@XZ.Z.#XcXcXjXoX}.].W.x.x u 9 q : l./.d.M.q.>.d i h j , j f.p Q.,X[._.). X{.!.8.<XvX6X<Xv.M.9XY.4 I.@.[ qX9Xt.x.",
"&XA.C.].}.Z.vXmXF.S.Z.@XjX*X*X#X$X X!.n.x u q 0 0 9 u 9 k f.qXL.e 4 ! & 8XrXb k.6.'. XoX%X}.{.S.].].S.D.5.q.r.X.$.] Z $ L.d.t.v.",
").A.F.<.].C.4X4XZ.C.).Z.).).@X$X}.{.v.c.y.p e , ..< 3 L.3 l uXI.* % ~ Y R.tXj /.x.'.|.$X.XoX X X*X@XS.<Xb.w.L.I.eXL B 2 h > y.v.",
"A.vXnXZ.#XA.C.B.].F.Z.).@X.X].).%XG.8.z.y.i u i + 0XL.< : + /   = V R T ] @.` v a.~.{.]._.oX$X&X).].S.9.N.w.} ^ | M =.wXo.u w.i.",
"V.$XjX<.xXF.F.#XZ.Z.Z.]. X.X@X_.#X].D.v.n.q.w.r.d NXqX; l ..I.X.w U ! T V U ! j h.c.8.S.C._.$X$X].3X'.8.n.M.I.r B M ~ +.r , p d.",
"].V.A.xXBXmXZ.V.C.Z.).).C.C.}.:X*X@XF.D.K.z.e.i.t.w.8 w.d > 0Xh y w 7 ! U U _ e v a.x.8.7.|.[.S.C.'.4.1.a.k.L.4 2 ~ # * = r 9 c ",
"Z.Z.Z.4XmXbXA.F.Z.A.A._.$X}.>X:XcX&XH.F.[.D.0.8.v.z.z.z.u.u.t.x p p t q w w 7 r b d.a.z.x.8.,X,X6.v.z.M.M.r.i 6 [ K ~ / = 1 r r ",
"C.C.F.C.A.G.xXA.F.F.Z..X$X). X:XjXXXJ..XF.S.S.D.G.v.G.v.x.x.5.^.t.t.s 9 q q 7 y y k x y.i.u.1.u.a.c.i.i.r.d , , 3 K ^ ~ Z Z U Z ",
"[._.G.F.F.nXnXA.V.=XF.A.$XoX_.;XhXXXXX&X=X#X[.%XS.D.'.,XD.D.W.W.6.x.s.y.p 0 0 O.e 9 i p x d.g.g.d.d.s d r.h 6 g 3 / L Z A R Y C ",
"`.[.A.A.vXnX#XA.Z.bXbXZ.>X-XoX:XXXXXjXjXjX#X[.[.7.7.K.'.,X<XW.E.,X!.c.j.c 9 t o.r r e e 9 9 p h j f e 3 [ r 2 / $.;./ M C R T m ",
"E.|.C.3.#XA.<.H.bXMXMX=X$X:X$XoX.X+X@X$X$X`.7.7.6.6.x.v.^.E.W.W.{.^.^././.t q  .w w w r e f v P.q w 1 * Y U V A R.R.=.C S R m m ",
"{.E.|.|.A.H.G.A.jXMXnX@X.X*X$XoXoX$X$X*X[.E.4.6.u.u.i.p.^.^.^.^.Q.^.^./.9Xt 7 y & * w w ! r P.wX& ! V ~ ] ] ] &.pX:.=.W W -.W W ",
"E.3.7. XG.#XG.B.B.jXH.J.H.&X&X$X#X%X%X1X1X!.p.u.t.x x x s.s.s.^.^.Q.^.x h.b t y ) ! ! K $ X $ w * ! A R W -.Q pX-.Q Q -.-.-.-.W ",
"{.1X`.`.F.A.A.H.H.A.J.H.&X&XoX.XC.F.`.S.8.z.2.a a s p p x a s.s.a ^.a a t b y ) _ ! ! ^ ! 2 1 ^ ! Z V S W G G G pXG Q Q W W W m "
};
