/* XPM */
static char *c11d364f2e7e48a3de943d9c828169c6aMsDlgtZTPd7tjqB[] = {
/* columns rows colors chars-per-pixel */
"64 64 248 2 ",
"   c #12003D",
".  c #0C003A",
"X  c #0E0145",
"o  c #140344",
"O  c #1A0947",
"+  c #15044A",
"@  c #1B064C",
"#  c #170A4B",
"$  c #1C0B4C",
"%  c #180645",
"&  c #1D104D",
"*  c #1B0553",
"=  c #1D0C52",
"-  c #1E0D5A",
";  c #170853",
":  c #1E1154",
">  c #1E115C",
",  c #210C4D",
"<  c #20074B",
"1  c #21114F",
"2  c #210D54",
"3  c #230E5C",
"4  c #21075B",
"5  c #221254",
"6  c #24125B",
"7  c #29145D",
"8  c #291A5D",
"9  c #26175B",
"0  c #321C5D",
"q  c #1F1261",
"w  c #250D62",
"e  c #2A0D64",
"r  c #290C69",
"t  c #251362",
"y  c #2A1464",
"u  c #2D1A64",
"i  c #2C146A",
"p  c #2D1A6A",
"a  c #251865",
"s  c #311B66",
"d  c #32166D",
"f  c #321B6D",
"g  c #2C1371",
"h  c #2D1A76",
"j  c #331673",
"k  c #341C73",
"l  c #391C75",
"z  c #351C7A",
"x  c #3A1D7B",
"c  c #37167B",
"v  c #320D6E",
"b  c #352468",
"n  c #2E2074",
"m  c #352073",
"M  c #3A2375",
"N  c #3C237B",
"B  c #3A2678",
"V  c #411C7B",
"C  c #43237E",
"Z  c #422A7E",
"A  c #53417E",
"S  c #3C1C82",
"D  c #361A80",
"F  c #3D2282",
"G  c #382586",
"H  c #441E87",
"J  c #541B82",
"K  c #432484",
"L  c #4A2585",
"P  c #442983",
"I  c #44248A",
"U  c #4A258C",
"Y  c #462A8B",
"T  c #4B2B8C",
"R  c #4D2A87",
"E  c #532B8C",
"W  c #55278B",
"Q  c #4C3489",
"!  c #543889",
"~  c #4D2B93",
"^  c #492994",
"/  c #522C94",
"(  c #5B2D94",
")  c #532D9A",
"_  c #5B2D9C",
"`  c #542694",
"'  c #4D3292",
"]  c #543295",
"[  c #5B3394",
"{  c #55329B",
"}  c #5A339C",
"|  c #5A3C97",
" . c #622E93",
".. c #632C9A",
"X. c #62349B",
"o. c #66369A",
"O. c #783A9C",
"+. c #632A8B",
"@. c #5C34A3",
"#. c #5C38A3",
"$. c #6334A4",
"%. c #633AA4",
"&. c #6C3CA3",
"*. c #643BAC",
"=. c #6B3DAC",
"-. c #6936A5",
";. c #743EA4",
":. c #7A3BA3",
">. c #743CAC",
",. c #7B3EAC",
"<. c #7535A6",
"1. c #6B3EB1",
"2. c #783DB3",
"3. c #692FA0",
"4. c #5A4794",
"5. c #62499C",
"6. c #675699",
"7. c #754E9D",
"8. c #6948A6",
"9. c #7C42A4",
"0. c #7443AB",
"q. c #7C43AC",
"w. c #7341A4",
"e. c #6855A4",
"r. c #7253AD",
"t. c #6C43B4",
"y. c #6E4BB5",
"u. c #7B44B2",
"i. c #7746B6",
"p. c #7758B5",
"a. c #7B64B7",
"s. c #7462AA",
"d. c #7952C2",
"f. c #843D9F",
"g. c #833DA3",
"h. c #843DAC",
"j. c #8B3EAA",
"k. c #853EB4",
"l. c #8343A3",
"z. c #8443AC",
"x. c #8B44AC",
"c. c #8A46A7",
"v. c #8443B2",
"b. c #8B45B3",
"n. c #8E4BB4",
"m. c #8C44BB",
"M. c #8D4BBA",
"N. c #8447B8",
"B. c #9345B5",
"V. c #924AB4",
"C. c #9446BB",
"Z. c #934BBC",
"A. c #9A4CBC",
"S. c #994CB5",
"D. c #9B52BD",
"F. c #9751B7",
"G. c #904AAF",
"H. c #A14DBD",
"J. c #A152BD",
"K. c #8367BB",
"L. c #81419F",
"P. c #954CC3",
"I. c #9A4CC3",
"U. c #9B4ECA",
"Y. c #9546C5",
"T. c #895BCB",
"R. c #9B53C4",
"E. c #9B54C8",
"W. c #9052CB",
"Q. c #A24BC4",
"!. c #A25BC5",
"~. c #A053CC",
"^. c #A35BCC",
"/. c #A759C9",
"(. c #A45BD3",
"). c #A75CD7",
"_. c #8868C6",
"`. c #8A76C8",
"'. c #9965D4",
"]. c #9877D9",
"[. c #916BD0",
"{. c #A464CC",
"}. c #A664DB",
"|. c #AB64DC",
" X c #AC6ADD",
".X c #A766D6",
"XX c #B268DC",
"oX c #AA73DA",
"OX c #B473DC",
"+X c #9B75E2",
"@X c #AB64E3",
"#X c #AC6BE3",
"$X c #AC67E8",
"%X c #B265E3",
"&X c #B36AE6",
"*X c #A579E8",
"=X c #B878E8",
"-X c #B97AF4",
";X c #A75EE1",
":X c #C57CEB",
">X c #9E82DC",
",X c #A692D8",
"<X c #BC96DD",
"1X c #A488DF",
"2X c #A688E7",
"3X c #B984EC",
"4X c #BC98E6",
"5X c #BB85F4",
"6X c #B997F8",
"7X c #AC8CED",
"8X c #BCA4F8",
"9X c #B5A2EB",
"0X c #B4A2DE",
"qX c #C299DB",
"wX c #C495EC",
"eX c #C39AEC",
"rX c #C599E6",
"tX c #C587F7",
"yX c #CA94FD",
"uX c #CB9CFC",
"iX c #C697F4",
"pX c #D698FD",
"aX c #CA86F3",
"sX c #CBA6E8",
"dX c #D2ADEE",
"fX c #D5B3EA",
"gX c #CAA3FB",
"hX c #D7A7FF",
"jX c #DAB5F4",
"kX c #E7A4FF",
"lX c #E3B9FB",
"zX c #FFBCFF",
"xX c #F5ABFF",
"cX c #E59CFF",
"vX c #DCC5FC",
"bX c #DFD0FF",
"nX c #ECCFED",
"mX c #F1CFEB",
"MX c #F4D3E4",
"NX c #F2D3EB",
"BX c #FAD6E8",
"VX c #ECCEFF",
"CX c #E6C7F9",
"ZX c #FEC6FF",
"AX c #ECD3FB",
"SX c #F4D4FD",
"DX c #F5D6F6",
"FX c #EED4EB",
/* pixels */
"= 1 9 $ 8 5 8 3 f Z l k P ^ Y { ) @.1.d.6XT.*.t.6XT.d.6X@.@.) H P z i 3 6 9 > ; r y N H v +.q.9.9.F.D.V.I.(.}.oXeXlXDXSXNXmXMXBX",
"o 8 $ 9 # 8 @ y u y d Q g Y Y ^ *Xd.*.@.d.d.d.5X'.d.d.T.1.) ) ^ P l i 3 > 6 > - - r j j e +.N.l.l.c.!.R.I.^.=X{.wXsXlXVXDXMXBXBX",
"# # O 9 6.b : p b f l m F F Y ^ +X*.) ) *.@.d.+X@.T.T.) / I I I F z i 6 6 5 > > d w e c v  .9.w.g.G.V.h..X.XOXOXwX<XsXnXDXMXMXBX",
"5 : $ 9 bXs.# & C 7 u l N N F F ^ I ^ ) ) *.d.*.t.+X+X^ ~ ^ ~ Y F m p 6 6 > 6 6 4 r V &...9.v.x.g.S.!..XXXXXOXpXwXsXfXDXDXMXMXMX",
"= X > 8 9 & a 8 2 8 a.vXP k l Y G Y I ^ ) #.#.) @.@.~ S U F S G N m p 7 > 6 6 a - r x X.( 0.9.:.G.G.:XxXXX/.aXiXeXjXVXDXBXFXMXMX",
"; 9 # > 9 8 : 8 9XQ f p.p k k z Y Y D G ^ ^ I ' ~ S S ~ Y ^ Y P N f u t 5 : 6 y 7Xr.V o.;.v.9.n.D.x./.pX).).OXiXrXlXSXSXnXMXMXMX",
"a & # & 9 # : a 9X4.@ + m u d l F F F I Y F S F H N I G l x F k h p y 6 2 = 5 y iXr.c X.>.9.<.x.D.D.j.C.XXXXOXpXrXlXSXSXnXBXBXMX",
"a > a > & # q & + $ y 7 3 y m d F G ' F F P Q F T k k i N g z h p y 6 5 = @ 2 t 4 x W o.&.N.v.z.V.D./.C.&X.X:XwXrXjXAXAXDXDXDXNX",
"p p p a = = * 2 = = 2 7 7 s s d h g B Q h 8X8Xr z l k k k k k k p y 3 = = 5 3 7 j R ( X.=.u.q.z.!.x.Q./.^.cXZXwXrXrXfXVXSXSXDXDX",
"B k a t t 6 4 < = = 2 2 3 y s f B p n F a 5.8.i k p i y a a a a p t - $ $ 2 5 7 d R [ $.>.u.q.,.z./.C.j.I.:XaX1XrXqXjXSXSXSXCXfX",
"Y B j y t t 3 2 = @ = = = = 9 u n s p n h p i f i y t 3 w 3 6 > t 6 = = $ 5 6 e d L ) [ =.0.u.q.O.j.!.:XZ.E.{.{.iXrXsXlXjXxXdXqX",
"G P K l i w e 7 = * 2 * = = : 7 y n f u N s t f t 6 3 6 t 6 > 6 6 6 = $ , 2 6 7 p L U ~ } *.0.u.b.O.=XzX{.E.3XOXiXeXrXdX<XsXrXqX",
"I L U F l e e 7 4 = = 2 = ; = > t u m t M s d 4 7 3 7 7 7 7 > - - = = $ $ 5 6 7 k N Y U ) @.%.=.:.g.V.^.R.E.{.{.iXuXeXeX4XeXiXpX",
") / U L C V d d 3 4 - 2 = = = = t > u a y 4 0 7 7 7 7 7 6 6 = # = # = $ $ $ 5 3 i x I ^ ) @.{ X.w.b.z.z.^..X.X*X5XuXuXwXuXtXOXOX",
"8.%._ T C C C C f u 6 7 7 - = = 7 = 7 7 7 2 7 0 7 7 2 2 : = $ # * = $ $ $ $ = 6 r h S H ) ) ) %.w.O.z.R.Z.#XtX}.iXuX6X3XhX3X'.'.",
"u.u.=.X.+.C Z [ [ C l m m a a a 3 t 6 2 7 7 2 2 2 2 4 < $ = = $ # = = $ $ # = 2 3 i g D I ) @.0.O.9.n.D.N.kXkX'.yXyX3X XlXiX X#X",
"9.9.O.W +.+. .+.&.&.{ x g h D h h a 3 * @ 2 9 9 & ; : ; ; : & $ 5 $ 5 o 0 # 5 : 7 i j c H U @.>.9.G.G.G.XX|.@X$X#XyX:X$X#X.XtXZX",
"l.9.O.O.O.O.:.:.0.>.$./ ^ ^ ^ Y G F t y 7 5 o 1 # ; ; & # & $ & o O & 5 O 5 : 5 6 d l K H ` $.2.O.c.F.{.cXaX@X;X;X-X$X;X&X{.{.=X",
"G.x.x.n.b.n.Z.Z.k.,.;.$.@.%.#.] I x N M y 5 $ # ; & = = = $ $ & 2 O 1 & O & 8 5 6 s x L ` _ $.2.l.F.G.!.cX:X).$X;X$X$X%X.XP.x.Z.",
"V.n.P.E.Z.P.I.Z.v.k.,.,.>.&.8.[ U N N w 7 2 8 2 - = - = ; & $ O , < O 5 8 # X 9 4 y x U ) _ *.1.z.F.F.G.&X@X).:X$X%X%X).U.Z.Z.P.",
"P.W.E.P.P.Y.U.P.P.B.b.v.l.9.O.O.] ^ F F p 6 = y - > = = = $ O ,     6.AX5 O : 6 4 w k L { %.1.i.v.Z.E.U.|.).%X%X%X~.U.I.I.~.~.A.",
").}.).P.).(.(.(.I.Z.B.n.x.9.9.g.} Y r.7Xd w 3 6 t - - = = , 1 1 ,XA 1 6.$ 9 # 6 2 3 i K ) %.t.W.k.k.U.~.XX%X&XQ.Q.Y.I.I.I.I.I.Y.",
"#X}.#X}.pX&X|.%X(.I.C.S.V.x.j.j.-.I d.gXk i m w a t t - = $ , 1 0XA   . $ 5 8 6 4 w r c ^ _ 1.i.m.m.Y.P.).)./.H.C.H.H.I.I.C.Y.Q.",
"oX'.oX=XZXtX#XXX X~.I.R.A.B.j.j.i.%./ U R P N l d i t w = $ $ O     & & 1 $ 6 6 w - w g S ) @.1.2.Y.U.Y.XX/.S.S.H.S.j.j.A.R.I.C.",
"eX4XwXiXyXyX=X}.}.#X(.m.Y.Q.Y.j.2.1.$._ R V l l k l d w * $ , , & O # 1 9 9 = 7 3 w r g I ) @.@.2.v.Z.M.XX/.S.f.g.c.G.f.j.j.j.h.",
"<X<X<XrX4XuXhXpXoX#X|.~.~.U.Y.k.k.i.>.$.( R C V j l k y 3 2 2 O 1 O 5 # $ $ u 6 t w r k S ^ ) [ 2.<.M.E.J.c.c.c.j.c.l.f.c.x.<.+.",
"fXfXfXsXrXeXhXlX.X.X}.@X;XU.Y.U.Y.N.N.>.o.( E L c g i i y 3 $ $ & $ $ : u 8 6 i w r i j x L ^ { 2.,.n.n.D.G.c.l.f.c.L.L.9.:...J ",
"nXSXAXCXdX4X4XuXoX*X#X@X;XU.Y.Q.P.P.M.v.;.o.o.[ L l i r t = $ $ $ : o 5 $ 6 2 m y r i g z P Y [ $.N.u.0.F.c.O.l.f.L.L.O.o. .W J ",
"FXDXSXSXCXdX4X4X6XtX-X#X@X).U.Y.U.I.C.b.l.w.;.w.( C l i i 3 = $ = $ = @ 5 6 f p s d p i i N T ] ( -.q.u.q.z.z.z.:.;.O.X. .E E U ",
"NXNXnXSXSXjXrXeXuXuX5X#X@X%X).Y.Q.Q.A.B.x.z.9.r.} E P N m y 5 = = = = 9 ,X4.y l C m i y i k N T } ..i.N.-.=XtXo.q.&.[ ( ( ) ^ H ",
"BXDXNXDXSXdX<XeX6XyX3X.X|.XX).Q.Q.H.H.A.G.x.q.9.o.[ T N f u 6 # # > # n 8Xe.3 B Z l i e r i m N ) $.u.u.>.5X5X..=.X.) ) ) ^ G c ",
"FXNXNXSXSXdX4XuXiXyX-X X@X%X).Q.I.H.H.A.V.b.z.0.[ [ L l u 7 5 = = 6 a t 6 f B N Z l i w t i s l H %.%.0.1.>._ $._ _ { { ^ S h g ",
"FXFXSXAXsX4XjXZXuX-X@X;X$X$X$X&XI.A.A.A.A.b.v.q. . .Z V t : : & 9 - y m k l K K K K r * u 4 = B P ~ } } #.@.} ) } I U P j k k - ",
"AXAXbXfXrX4XiXtX-X$X$X$X$X$X$X).R.D.A.Z.m.v.,.q. .+.C d 6 = # : 6 > y k g a._.I U v | ].t 7 u - l P ' { { } @.{ ~ I P k P y y 4 ",
"vXvXdX<XrXgX3X.X.X@X&X%X$X&X%X).R.A.A.B.v.,.q.0.o.W V f y 2 = 5 = a p i y _.[.[ R j R `.6 8 5 5 t l P I ~ ~ ~ E ^ F x d d 6 6 6 ",
"4XsXrXrXiXiX3X}..X}.;X).).).^.R.I.C.k.b.v.u.>.;.[ L f f y 5 5 9 7 ; t N F Y } r.L K e e 3 3 @ 7 w i j l N x K H P l z B - t t = ",
"4XeXiXuXyX3X X X X(.I.R.!.D.A.S.D.B.j.k.v.q.&.} E x i u 6 2 $ 6 = t e.2X4.z r.6X8.L d * t @ 2 # * 4 r d f k l l k k p m 6 u 6 + ",
"uXuXyXyXyX=X(.@X(.P.C.A.D.S.S.S.A.B.h.k.u.&.( U P z i t 4 2 2 2 t - m e.x >X7Xp.2X5.e t 7 2 $ # = - 3 u f f f f d p t ; u 2 # = ",
"3XyX5X5XtX=X}.%XU.I.Z.B.B.S.G.x.B.b.h.h.>.X.U F G n y t - * 2 2 6 t w w t >X2XP >X5.4 4 7 6 % 5 # $ 2 7 y u u d s 3 m 6.6 # + 5 ",
".XtXtX}.#X%X|.|.P.U.Z.k.j.j.c.g.j.h.h.>.o./ L F k n p - ; @ 2 2 t - y - Q k m F Q f d s 7 $ = O $ # # 5 5 5 2 7 s = 6.AX9 & # # ",
" XE.aXzX&X X|.U.U.m.k.k.k.h.b.z.h.,.z.;.X.T C k r a q > ; = @ = 6 y 6 y 9X8.p P P M u 3 3 6 5 # & # O $ $ $ 2 7 VX6.X 9 1 & o & ",
"{.OXOXaXXX(.m.P.U.m.k.2.,.2.v.,.v.9.;.o.] L m h q q q - : ; 2 $ = 4 3 3 5.M t N Z m d 7 6 7 5 = & & # & 2 $ < 2 5.b # , , $ O & ",
"OX!.D.{..X{.E.W.Y.2.k.2.<.2.2.i.u.w.[ E P N k y > > = = = $ = # # = = 3 * 4 t p m m d y t 7 7 > : : : : 1 $ , <   % , O O O & O ",
"!.{.{.x.Z.Z.P.m.2.2.>.-.$.$.1.=.%.[ R B x l y t - - = = ; & $ $ 2 @ 2 5 + 3 u 3 s f s y t 7 6 6 9 > 5 9 5 : , , , O , , O & & O ",
"A.kXpXb.R.R.M.W.3._ .._ ) @.@.| T N l h d p t 3 = = $ $ O O O & 1 % O $ : : 6 - y p p p a w 6 t > 9 9 > 7 , , < 1 < < 1 O 1 1 O ",
"S.OXOXV.Z.v.>.&...` ) ~ I G Y G n h i a y y 6 4 2 @ $ $ & O & & $ $ $ O 6 + = 6 6 t p p a t r t : > 9 : 2 2 3 < % , < % O O < , ",
"R.O.z.E.Z.h.q.&...` U G S G G G n h p p y w 2 2 , 2 $ & O O O O O , , O 5 # 2 7 > t y p i t r t > q a 9 3 7 7 , < < < % 6.0   1 ",
",.k.u.2.<...( ` [ U H h g h n h n n p p y 7 2 2 2 , , & O & & & O O O O # 9 7 2 6 t y h k a t i a p a t 7 7 7 5 1 < % 0 AX6.  , ",
"=.1.i.1.@.@.^ Y P M s 6 t t t t t - t s 6 y s 4 , @ 2 < , , , O # : # # : 6 6 t 3 p p i m z k k i >X`.X a > u : # $ $ $ 5 , , $ ",
"i.1.1.@.@.) ^ N M s 6 : = 5 - - t 7 d s s 6 7 y 4 $ * , , , , O : # : : = : t - t p k m h k g z l F s.`.p + 9 9 = = $ $ $ 2 , @ ",
"t.*.@.) ) ^ G h u 7 : $ = = = * 3 7 p p Z 6 4 y 2 2 = , 1 $ & O $ : : # 6 u a 3 y h p P k k g k h p Q `.p 9 > 6 : : $ = @ = @ < ",
"^ ) @.) S D g r 3 = = $ $ = = - 3 6 y s M p 6 6 3 2 4 @ $ , O # # : ; # u > + p y l h N F F k N i N n a t p 6 = 6 : = $ , = < 2 ",
"G ^ ^ I D g w q = , $ & $ $ = = 6 t t p t p a t 6 3 = $ $ $ $ $ $ & 9 9 6 = 6 a p B k w Y T F F z i m y t - a 6 6 = = $ * $ 2 , ",
"` I S c c g r 4 = $ & O $ $ $ $ 6 t y p y t 3 t 6 2 = = = $ $ $ : # 8 > - e.a.- f l k g F P P P P g k P i - 6 6 6 2 = # , 2 < 2 ",
"@.T H c c g r q = = O , , < 2 2 3 w a p e.m - t 6 - = = # $ & & & : 8 : 6 s.K.y h r Y r.F Y Y Y P N g i k p - 6 6 : = $ $ 2 2 < ",
"[ ] ( U c r q w = # O , 1 1 6 7 t t a h 9X5.- w t - = ; = : & $ $ 5 : 6 a * = B m g 5.6XT { ] I U c z k m t y w 6 5 2 - < @ 2 @ ",
"w.[ [ { x z S - - : # $   1 1 < 7 4 d d B i p y t 3 = ; = : & # = : 6 5 6 t u l r P ] c T T { I U j c c j y n 3 6 6 5 = $ * @ < ",
"w.u.&.] } I g y t y # # 1 9 ! 4X7 7 f f P M k t - a p = X = : # $ : 6 6 6 a p f k r x [ S ].6X]./ h v g P f y t 6 6 6 = = = 2 4 ",
"q.w.o.&.%.~ F z t 6 B 4.s o Z sXu l d l l N i M | a = 6 : = $ # : : 6 6 6 y f l j 8.8.U S *XyX+XU p.8.g l z y t 6 6 = - 2 2 2 , ",
"N.M.M.=.` / ) K N - 6.AX0 u 7 = l d j f P M M N 8X5.t 6 - + = 5 ; : 5 6 y u l M P ].[.H $.) ) t.I [.[.j d m k t 6 > 5 = * $ = = ",
"x.pXyX>.` _ ) ^ z * d u s @ y e d e r.SX! 1X_.3 d 4 4 y 7 6 2 o = : = 6 y u m M 6Xp.) ) 6XT.@.1.) #.{ c x l l p y 6 6 2 2 , * 2 ",
"!.aX-XY.2.*.@.) F B u y * t e y 7 n.].e.o.5.p.`.i u t 6 3 2 2 2 = = = 6 y d l l r.L x *.T.i.d.*Xt.H S F T k k p y 7 6 6 2 2 2 2 ",
"XXP.E.E.d.2.t.) x F p 3 5.M 3 C d K._.5.5.K | 1Xr.5.M 7 y 9 = = = = = 6 7 d f l x U U _ @.T.+X+Xy.@.) I Y k l p y a 7 5 1 7 6 6 ",
"XX&X}.Y.2.t.*.{ ' k p p gX5.f l E v 8.gX8.| ] B VXCX_.3 * 7 6 # = = = 6 7 d k l U S ~ *.@.7X5X#.t.#.~ S Y l d m t 7 7 2 7 5 6 7 "
};
