/* XPM */
static char *result[] = {
/* columns rows colors chars-per-pixel */
"64 64 87 1 ",
"  c #010102",
". c #04050C",
"X c #06090D",
"o c #080A0A",
"O c #060711",
"+ c #070813",
"@ c #080915",
"# c #070C19",
"$ c #0A0C1B",
"% c #0C111D",
"& c #0C0F21",
"* c #0E1125",
"= c #0E1329",
"- c #101425",
"; c #11142C",
": c #12192C",
"> c #0D1930",
", c #131731",
"< c #141935",
"1 c #161B3B",
"2 c #181E3D",
"3 c #112134",
"4 c #12263C",
"5 c #19213E",
"6 c #18293E",
"7 c #20263F",
"8 c #161E40",
"9 c #181F43",
"0 c #172144",
"q c #1A2145",
"w c #142842",
"e c #1C2C45",
"r c #17264D",
"t c #1B234B",
"y c #1F2A4E",
"u c #1C2652",
"i c #1D2954",
"p c #1D2B5B",
"a c #212A4E",
"s c #263849",
"d c #222C54",
"f c #212E59",
"g c #223353",
"h c #263E56",
"j c #25325B",
"k c #29345C",
"l c #1E2E61",
"z c #1E3266",
"x c #202F62",
"c c #223264",
"v c #293660",
"b c #2B3A63",
"n c #24376A",
"m c #263A6F",
"M c #2B3E6C",
"N c #253D75",
"B c #293D71",
"V c #273F78",
"C c #29426E",
"Z c #34456E",
"A c #2C4376",
"S c #274179",
"D c #2D467C",
"F c #294788",
"G c #2C4D8D",
"H c #304B83",
"J c #345085",
"K c #3D5686",
"L c #37578B",
"P c #2B4F94",
"I c #2E5493",
"U c #335797",
"Y c #3A5C95",
"T c #3F649B",
"R c #3961A7",
"E c #3B66A8",
"W c #3E6CB3",
"Q c #41629A",
"! c #4D6999",
"~ c #536E95",
"^ c #547AAF",
"/ c #4371B4",
"( c #5075B0",
") c #5084C5",
"_ c #6094D6",
"` c #75ADE5",
"' c #8FC5F4",
/* pixels */
"       .   XO@@@@OX        X+++++. .           .                ",
"  ..  . . .X@@@@+O.       ..++++O...X.           o              ",
"    o.+o.,=+$#$@X X      ..@@++O.  . X         o. .             ",
"Xo o..ooXe3++%0O    .     X$++OO.         .  X.#XXX..   .+      ",
"o   >#X##$@+X$g.       X XO++O..X       . ..O@@@X+XOX..&8r&X    ",
"oo.<Ti++*$@+ X        .O.O@@@OO@@      XOXO+++@@+O++O.+r/)zO    ",
" XX#i=+*:oeg .       ..XO+@@@+.@@+O...XO+++@@@@++@@++@=N`'I>.   ",
"...X#%%:%o-4.       X@@O++@@@+O@<q2*$&$@@@$@+@@OX$+O@+@8UEi     ",
".+###%%*%         .  X$@+@@O@&*;5a7:51>&&@@+O@$$....OO@&>8$.    ",
".X@%%*+X.X.       o   @&$&@.@;*&$*&&1AJ8*$O. X+&.. ..XOO$$..    ",
"X@$+%+=3....        ..@&&OO.**@OO+@@=jAt<&O   @;     .O++O.     ",
"+++X#.%*     o    ..XO+;*+OO;&@@@@@$$*;00*&#@&;@      $@#+O.    ",
"+X.X.           ..&&@@@&;@+@*&@@$$O@@&*5t;:;=;@     . .+@+O.    ",
"X#  o    .      .&*$&@@;2$@%$&$$$@XO&,=dkdt<&$.  X@@@OOO+OO.+   ",
". .   o         @=$$$@@;9*@@@&&&@+X@=11jMka1&@O..&&&&$@++O..X   ",
"    .           *<*@@@$*;-$@@@@@$@@*>;5jkaq:&@@O@&@@&,&@+OOX.   ",
"   .     ...   .*a1&$&&&<<&$-$@@&&;;;,qdi9u1=&@++$&@$;,$++++O.  ",
"       .....%O. @;,=,9<1a2*&*&&&&;;=;,tftuu9<&&&$@$$*;*$@@@++...",
"    OX.XOOOOOOO.@&;1b!ciq<==*;;<<18<<99nBiuu9=;;=**,89=$@@@@OO@O",
"   X+OOO@OOO@@OOO$;9nKiq929911999qVatftxctu99998899998=$@$++@@@@",
"  .+OO+@@OOO+++O@@&<99<<,9ad9xafapGx998199<1<<<189txH8=@@$@OO@@@",
"X.X+++@+OOO.O++@@@@&&;*&=999n^Vdfa981,;*;;=&*&&&=<9uN9;=&$.XOOO@",
"+O@@+O@O@OOOO@@@@@@$&&&,<d99fQBaf999<=;1<<=$$@@O@&8ttt8&&@.  .O@",
"&+$*$OOX...@$++@+@@@@$&,89189udq1998,;199<&@@@O...&,<1<&&@.  ..O",
"+@@%+.. ..XO++@+@$&@@@@@;,=,9d9qa9,**<9<<*@@$$@O  O$&=&&@..   X+",
"O@#..+ ...O@@@++&&@$@@OO$&;<9d9qf1**;,;*&&&&<=&&@..X@$$+..   .O+",
".X+...  .@&&*=$$&&$&@@OO@&;<qk111**,;*;,;*&,ta<;**@@++O+.    .OO",
"        X$@&*<<98<*&@@@@$;=,qa1;*,91;,9t9,,8tft<<99=&+OO.    .O+",
"    . ..O#@@&=aft9;&&$$@&=&=99<&;92;;tcVuqq<,<8<9vd<*$O..   ..O+",
"     XOOO+OO@=<2<<=&&=;*$&*,9d<&*8,&1txnq1,>,:,-*<9<,&+.@  ..O++",
"     .#++OO.@===,<<-;<<-*,299d9=;<,;;tt95<1*@O.O@$*;;*&$$.  .O++",
"    .+%@O...O&,&&tf92<=*<<9df9,*;92<11,;;,:.    .X@&&,,*@ .OO+++",
"  ..OO@@O.. .&**&<dka8<<99uYG9118t9t1;;*22$     . .$*81@...@O+++",
"   O@O@$&$O..@*,**<9ft98udunx91<9tut1;*1a<$.   .@$@O&<,.  .O@@OO",
"  .@OO@&@+...@;<*;1dfmYfuff99au9tdfxt<&<2*@.  o@&$$+$,* ...@OOO.",
".X%OOOO&&OO.O&<9;,9vffHpuu9<9uuutttVx1,;<*$O++O$&@@+=;@ ..@OO.. ",
".O@+O@O@*;<*,,9a<<9a929999<19idu919duu2,;*&O@OO$&$$&;&..O++O..  ",
"O@+@@@+O@*<1<<9<;,<<<2219tafdd9uu219uux9*&&$@@@@$&&&$...O++O@.  ",
"@@@@@@@++@$**&=&=*&;88adkjvvfi9quu199uUx2;&&@@@@+@@@..OOO+O+e<  ",
"@@@+.O+@+@@+@$$$$&&=19aMvjat2<<<tu1<<1upt1**$@@@+O..o@@@+OO=LCO ",
"@@@...O@@$$@@+++++@=*,9kZk8<;&**19,&*;9t111,;$@@@O@$@@@@@O..=$  ",
"@O....@$@$&@@$&&$@@&&=,abj0:=*;*29;&**<<**;99*$$@@@$$@@$$O      ",
"@+.. .@@@$&&*;<1,&&$&=,9990,&&&;9t<*$$&*&*,qq1;&$$$&$@@OO.. .  .",
"@OO   O@@O@@=,9t,&=&**81&;;&$@@$;<;$@O@@&&2axt81,<;&$@@OOX. ..O.",
"+O.  ..@@+OO&=<9,&=<99f9;=:@.. .$,*ooOOO@*1uYHt98<&&@@@@OX.XO#.X",
".    .O+@@OO&**,1,9uxjbq<**X X  O;*. .O@$$,qvxt1;&$@@$$@@@O@@$O+",
"  . X.O+&@+@&=,;,9lD(Njq2*$  @  .&@ ..@$$$*,122,&$@@@@@@+@+#$@+@",
"  X..OO@*&&&;999uxumQxua<;@  @. .&@..@&&$$,;*;<<=@@@@@+#+@+%*#@@",
"  XO.O+&,1<;;;;1uz9ultt8,&&@+&O.O&OO@@@=&,,&$$&,=@$&@++++++@$&#+",
"  ..O$$,q91=&$$$&;<1999,=;<,&$OO@$O+@@@@$&@O+++&&$$$OXOOOO+O++++",
"  .X+$@&<:&O.XO@$&&=,<8,;1<*$@+@$OO@$@+++OOOO++@@&&+.. X..XXO.O.",
"  .@@$@&,O ..OO+++@&&=;&*=&@@@@@@@@+$++OOO.OO++@@@O        ...O.",
"   O++@,;.O+...@++@+$<,&@&@@@@@@@@@@@@+++O+++@@+@O. OX   .    X ",
"  .XO+O&<&$@ X.@+@+@@<<$$@@@+@@@@@@@@@++O+@++@@@OO..+X   <X     ",
"    ....%$@. .O@@@@@@-&#@@@@@@+@@@@@@@@@@@$@@@+@@@..X.  3~g.    ",
"    ....    ...@@@@$&$@@@@@@@@@@@@@@@@@@@@@@@@@@@@@@X   Xg%     ",
"   .O...X  ..OO+@@@@#@@+@@@@@@@$&@@+@@@+@@@@@+&@+@++.    X      ",
"  .=81&++.OOOO#@$@@OO@+O+@@@@@@+@$@@@@@@@@@++O@O+@@+X           ",
" .&uPWz8&+++O+$%$OOX.O+O+++@@@@@@+@@@@@@@@@++++++@OX            ",
".X&rF_Rz<@+O.+%@@..  .OOOO@OO+#+@@+@@O@@@++O+OO+++X.            ",
"O+$=9GPp=OOX. ..      .X....X.OOO+OOOO@+$@XOOO+++O.             ",
"++@@$=>&@O...             ...   .X..OOOO..XOO+@++..   o    X   .",
"@@@+O..... .                     .   .......OO@++X   :h4w43s3366",
"@@@+O.  ..                              .....+@+O    X#=>:&#***%"
};
